Coordinates
version=1
nRows=8
nColumns=40
inDegrees=yes

Units are S.I. units (second, meters, Newtons, ...)
Angles are in degrees.

endheader
time	pelvis_tilt	pelvis_list	pelvis_rotation	pelvis_tx	pelvis_ty	pelvis_tz	hip_flexion_r	hip_adduction_r	hip_rotation_r	knee_angle_r	knee_angle_r_beta	ankle_angle_r	subtalar_angle_r	mtp_angle_r	hip_flexion_l	hip_adduction_l	hip_rotation_l	knee_angle_l	knee_angle_l_beta	ankle_angle_l	subtalar_angle_l	mtp_angle_l	lumbar_extension	lumbar_bending	lumbar_rotation	arm_flex_r	arm_add_r	arm_rot_r	elbow_flex_r	pro_sup_r	wrist_flex_r	wrist_dev_r	arm_flex_l	arm_add_l	arm_rot_l	elbow_flex_l	pro_sup_l	wrist_flex_l	wrist_dev_l
      1.21000000	     -1.95976769	      4.74070760	     -0.03184891	     -0.05986375	      0.95851159	     -1.47866903	     22.71121877	    -15.43733057	    -15.82569088	    -53.82215843	     -0.93937388	      2.41888904	    -15.74327030	     17.06913638	      4.49384190	     -7.42342583	     10.68631623	    -12.47013377	     -0.21764489	      4.61953930	      6.06279700	     -2.81892783	     -3.26649754	     -5.22795704	     -0.31835429	      3.07711997	    -11.54093041	    -15.64290159	     20.95404348	     89.95437384	      0.00000000	      0.00000000	      8.17234479	     12.87952761	      7.68032606	     24.40878005	     89.95437384	      0.00000000	      0.00000000
      1.22000000	     -2.23013000	      4.73345315	      0.32679357	     -0.05183713	      0.95817893	     -1.48002850	     23.81670734	    -15.34112712	    -16.04655018	    -52.16517101	     -0.91045399	      2.69155191	    -15.41120903	     16.80676342	      4.16431779	     -7.49611102	     10.84412186	    -12.37214332	     -0.21593464	      4.89923808	      5.95122914	     -2.86538822	     -3.11785263	     -5.16092770	     -0.97436667	      2.90290267	    -11.54814916	    -15.74485057	     21.24151970	     89.95437384	      0.00000000	      0.00000000	      8.86000935	     12.93950172	      7.30845271	     25.04475197	     89.95437384	      0.00000000	      0.00000000
      1.23000000	     -1.69043580	      3.91107957	      1.08411915	     -0.04335754	      0.95929888	     -1.48102221	     23.35472440	    -14.39035834	    -17.16035803	    -49.70564451	     -0.86752715	      2.92170874	    -15.08229066	     16.91262438	      2.69164209	     -6.65049276	      9.99695820	    -11.84764426	     -0.20678040	      5.13327479	      5.45878590	     -3.42125298	     -3.95900915	     -4.21688973	     -1.72545071	      2.78487163	    -11.38100534	    -17.40028545	     21.47188136	     89.95437384	      0.00000000	      0.00000000	      9.65161033	     13.27198167	      4.94454067	     26.05022983	     89.95437384	      0.00000000	      0.00000000
      1.24000000	     -1.82739596	      3.54460048	      1.56119222	     -0.03499986	      0.95896867	     -1.48210059	     23.94778727	    -13.87511700	    -17.60230270	    -47.53467101	     -0.82963652	      3.17884775	    -14.39040745	     16.66592278	      2.16195951	     -6.28748050	      9.74351983	    -11.67891399	     -0.20383550	      5.47145470	      5.09799304	     -3.78690443	     -3.91539222	     -3.75734911	     -2.34601590	      2.60606833	    -11.35171555	    -18.01362368	     21.59050019	     89.95437384	      0.00000000	      0.00000000	     10.32643061	     13.36223643	      4.01600915	     26.74076463	     89.95437384	      0.00000000	      0.00000000
      1.25000000	     -2.15591509	      3.31760141	      1.91887138	     -0.02687586	      0.95811033	     -1.48288610	     24.84064665	    -13.45587947	    -17.78812104	    -45.31225603	     -0.79084806	      3.37337545	    -13.55436442	     16.28996177	      1.85822178	     -6.06986035	      9.50071614	    -11.48100963	     -0.20038142	      5.75138668	      4.71072870	     -3.94700515	     -3.68395848	     -3.46795181	     -2.89005610	      2.43207516	    -11.31585502	    -18.29231356	     21.72178016	     89.95437384	      0.00000000	      0.00000000	     10.92458442	     13.48342515	      3.31942337	     27.49086340	     89.95437384	      0.00000000	      0.00000000
      1.26000000	     -2.51529910	      3.48287326	      2.19975600	     -0.01842260	      0.95694690	     -1.48387317	     25.79906962	    -13.56516620	    -17.98900353	    -43.13688798	     -0.75288072	      3.55150854	    -12.87063676	     15.96084278	      1.64459074	     -6.28544491	      9.75802443	    -11.45922227	     -0.20000116	      6.09578955	      4.53771928	     -4.01132319	     -3.35603176	     -3.60465411	     -3.34514464	      2.14518603	    -11.30600551	    -18.30712745	     21.89896298	     89.95437384	      0.00000000	      0.00000000	     11.49291163	     13.53934767	      2.94505897	     28.16471242	     89.95437384	      0.00000000	      0.00000000
      1.27000000	     -1.86002762	      2.61989337	      2.60941846	     -0.00955922	      0.95747258	     -1.48389452	     24.99701131	    -12.29249453	    -18.52989366	    -39.93179497	     -0.69694130	      3.13051451	    -11.90252127	     14.91782806	      0.28642996	     -5.13350766	     10.03307671	    -11.32090766	     -0.19758711	      5.67525480	      3.31612817	     -8.67978293	     -4.21042878	     -2.61434242	     -3.72747500	      2.05487293	    -11.15652940	    -19.84333027	     22.01011955	     89.95437384	      0.00000000	      0.00000000	     12.17604939	     13.85306381	      0.93899180	     29.19065777	     89.95437384	      0.00000000	      0.00000000
      1.28000000	     -2.29697123	      2.87761428	      2.79670962	     -0.00107771	      0.95585752	     -1.48466100	     26.01876134	    -12.51533726	    -18.74319367	    -37.71846971	     -0.65831149	      3.19581977	    -11.21809779	     14.68103179	      0.13594429	     -5.45065065	     10.21288041	    -11.26412968	     -0.19659615	      5.99068072	      3.18328349	     -8.63293860	     -3.78097041	     -2.85305349	     -4.10481610	      1.77815302	    -11.13561905	    -19.84967937	     22.12767504	     89.95437384	      0.00000000	      0.00000000	     12.66987638	     13.91428679	      0.67456984	     29.82453431	     89.95437384	      0.00000000	      0.00000000
